Coordinates
version=1
nRows=20
nColumns=38
inDegrees=no

Units are S.I. units (second, meters, Newtons, ...)
If the header above contains a line with 'inDegrees', this indicates whether rotational values are in degrees (yes) or radians (no).

endheader
time	pelvis_tilt	pelvis_list	pelvis_rotation	pelvis_tx	pelvis_ty	pelvis_tz	hip_flexion_r	hip_adduction_r	hip_rotation_r	knee_angle_r	ankle_angle_r	subtalar_angle_r	mtp_angle_r	hip_flexion_l	hip_adduction_l	hip_rotation_l	knee_angle_l	ankle_angle_l	subtalar_angle_l	mtp_angle_l	lumbar_extension	lumbar_bending	lumbar_rotation	arm_flex_r	arm_add_r	arm_rot_r	elbow_flex_r	pro_sup_r	wrist_flex_r	wrist_dev_r	arm_flex_l	arm_add_l	arm_rot_l	elbow_flex_l	pro_sup_l	wrist_flex_l	wrist_dev_l
1.36	2.39529	1.42709	-0.880263	0.809364	0.212816	0.956386	0.0362021	0.0619015	-0.640407	0.337899	-0.401812	0	0	0.255666	-0.225167	-0.103767	1.20881	-0.127489	0	0	-0.245821	0.13193	0.125683	0.101684	-0.315498	0.951108	0.355341	0.746235	0	0	0.01866	-0.160002	0.00897362	0.411298	1.5708	0	0
1.37	2.45301	1.42905	-0.93752	0.810948	0.220332	0.957027	0.0269782	0.0628792	-0.632196	0.340301	-0.406444	0	0	0.27593	-0.223202	-0.0996067	1.20286	-0.110971	0	0	-0.251731	0.122241	0.12946	0.103169	-0.315557	0.954737	0.356671	0.738184	0	0	0.029895	-0.161439	0.0169516	0.401858	1.5708	0	0
1.38	2.48866	1.42973	-0.975072	0.811608	0.228224	0.957602	0.014254	0.0582016	-0.632794	0.338934	-0.408522	0	0	0.293969	-0.216591	-0.0990427	1.19306	-0.0961247	0	0	-0.256207	0.117439	0.134999	0.103919	-0.317904	0.956308	0.358236	0.732125	0	0	0.0409421	-0.160841	0.0249287	0.38983	1.5708	0	0
1.39	2.52244	1.43025	-1.01036	0.812192	0.236126	0.958088	0.00220941	0.0528224	-0.636027	0.339245	-0.407075	0	0	0.31036	-0.21054	-0.100309	1.17857	-0.0798994	0	0	-0.260319	0.113079	0.140228	0.104294	-0.320748	0.956777	0.360856	0.726155	0	0	0.052054	-0.160058	0.03245	0.377535	1.5708	0	0
1.4	2.55597	1.43086	-1.04489	0.812664	0.24397	0.958536	-0.00949377	0.0477959	-0.636552	0.339256	-0.403941	0	0	0.325246	-0.20552	-0.104633	1.15928	-0.0631177	0	0	-0.264231	0.10884	0.144755	0.1049	-0.323549	0.956764	0.363496	0.720298	0	0	0.062542	-0.159214	0.0395039	0.366259	1.5708	0	0
1.41	2.67923	1.42719	-1.16986	0.813987	0.251336	0.960749	-0.0315225	0.0341692	-0.631493	0.336597	-0.401074	0	0	0.329336	-0.194901	-0.119206	1.13458	-0.0571722	0	0	-0.280402	0.0923596	0.148527	0.109352	-0.321488	0.957276	0.362107	0.714626	0	0	0.0759461	-0.161148	0.0464702	0.356247	1.5708	0	0
1.42	2.70011	1.4265	-1.19378	0.813331	0.259874	0.961176	-0.0495956	0.0231194	-0.639057	0.33051	-0.383789	0	0	0.338258	-0.190886	-0.134573	1.1058	-0.0472607	0	0	-0.283077	0.0913248	0.153042	0.109997	-0.324643	0.957495	0.363046	0.710519	0	0	0.0819375	-0.159331	0.0522348	0.348926	1.5708	0	0
1.43	2.72594	1.43069	-1.22236	0.814308	0.267524	0.960842	-0.0615587	0.0323621	-0.58349	0.314944	-0.281577	0	0	0.351817	-0.190441	-0.150654	1.07348	-0.0375144	0	0	-0.282347	0.0850509	0.158475	0.110519	-0.32427	0.952502	0.363022	0.713376	0	0	0.0881957	-0.161539	0.06847	0.346768	1.5708	0	0
1.44	2.76158	1.43056	-1.25697	0.814685	0.275576	0.961124	-0.0753544	0.029711	-0.578246	0.31008	-0.268447	0	0	0.357468	-0.188139	-0.165444	1.03457	-0.0299056	0	0	-0.285742	0.0802035	0.159251	0.11185	-0.323438	0.94807	0.361615	0.720038	0	0	0.0918079	-0.163045	0.0787119	0.348464	1.5708	0	0
1.45	2.71523	1.43402	-1.20907	0.8147	0.284374	0.959792	-0.0822143	0.0368034	-0.575748	0.305545	-0.258211	0	0	0.367692	-0.191144	-0.173001	0.991633	-0.0132946	0	0	-0.278652	0.0869935	0.160561	0.109319	-0.32563	0.942156	0.362821	0.730835	0	0	0.0896347	-0.163159	0.0902965	0.352159	1.5708	0	0
1.46	2.74887	1.4338	-1.24112	0.814969	0.292539	0.959929	-0.096055	0.0335296	-0.576308	0.301316	-0.25586	0	0	0.368204	-0.187454	-0.190238	0.943193	-0.0054029	0	0	-0.281929	0.0827852	0.159502	0.112216	-0.325908	0.952163	0.363307	0.718555	0	0	0.0936512	-0.162294	0.0885432	0.346733	1.5708	0	0
1.47	2.78296	1.43308	-1.27354	0.815221	0.300718	0.959976	-0.110641	0.0305976	-0.576372	0.296248	-0.252301	0	0	0.365315	-0.183097	-0.209418	0.889703	0.00168854	0	0	-0.285667	0.0783834	0.158117	0.114942	-0.325592	0.960765	0.363228	0.707554	0	0	0.0969232	-0.162107	0.0907114	0.342297	1.5708	0	0
1.48	2.81654	1.43266	-1.30537	0.8154	0.308893	0.959868	-0.124538	0.0273459	-0.576236	0.291958	-0.247723	0	0	0.360282	-0.177683	-0.230465	0.831469	0.00706389	0	0	-0.289183	0.073772	0.156522	0.117381	-0.324847	0.967303	0.362706	0.698466	0	0	0.099929	-0.161972	0.0925904	0.339674	1.5708	0	0
1.49	2.8547	1.43272	-1.3419	0.815489	0.317089	0.959673	-0.137456	0.0226102	-0.576977	0.289262	-0.242976	0	0	0.353102	-0.171455	-0.256467	0.769062	0.0131694	0	0	-0.292488	0.068299	0.154686	0.119636	-0.323757	0.970556	0.361875	0.693296	0	0	0.102656	-0.161909	0.0929899	0.338837	1.5708	0	0
1.5	2.88677	1.43305	-1.37323	0.81559	0.325434	0.959318	-0.150014	0.0185473	-0.577076	0.286137	-0.239524	0	0	0.344673	-0.163603	-0.281489	0.703122	0.0180465	0	0	-0.294876	0.0635142	0.153742	0.121474	-0.323122	0.973371	0.361249	0.689254	0	0	0.105178	-0.161599	0.0925959	0.337021	1.5708	0	0
1.51	2.96499	1.43058	-1.45141	0.815615	0.333386	0.959755	-0.165581	0.00715544	-0.578322	0.284005	-0.235888	0	0	0.331206	-0.157531	-0.332372	0.638798	0.0177467	0	0	-0.302815	0.051951	0.152188	0.125563	-0.321575	0.976443	0.359391	0.685585	0	0	0.110594	-0.161459	0.0915076	0.333168	1.5708	0	0
1.52	3.03632	1.43064	-1.52117	0.815742	0.340723	0.959915	-0.176302	-0.00297898	-0.578308	0.282575	-0.231407	0	0	0.305216	-0.113875	-0.299856	0.527144	0.00922262	0	0	-0.308632	0.0404897	0.149458	0.130954	-0.319026	0.9787	0.356312	0.681886	0	0	0.118498	-0.161771	0.0899174	0.3267	1.5708	0	0
1.53	3.08014	1.43258	-1.56504	0.815344	0.349244	0.959038	-0.186886	-0.00829538	-0.569121	0.279022	-0.19915	0	0	0.283255	-0.0946735	-0.322007	0.429587	0.00239678	0	0	-0.307843	0.0343044	0.14939	0.130668	-0.318113	0.965565	0.353278	0.698496	0	0	0.123256	-0.159767	0.0885271	0.318021	1.5708	0	0
1.54	2.96212	1.44901	-1.44441	0.814241	0.359233	0.954856	-0.18143	0.0065642	-0.570289	0.278124	-0.174041	0	0	0.311288	-0.115595	-0.372855	0.405774	0.0286526	0	0	-0.284176	0.0524459	0.150995	0.121955	-0.324641	0.95396	0.35785	0.719047	0	0	0.114852	-0.158302	0.105207	0.322842	1.5708	0	0
1.55	3.02659	1.45214	-1.50636	0.813551	0.367488	0.95407	-0.189768	-0.00287326	-0.573215	0.278551	-0.154026	0	0	0.284039	-0.0771699	-0.341787	0.29175	0.0139262	0	0	-0.283708	0.0449316	0.146026	0.12766	-0.331914	0.999463	0.367965	0.655874	0	0	0.12303	-0.152839	0.0764553	0.305572	1.5708	0	0
